<svg width="44" height="44" viewBox="0 0 44 44" fill="none" xmlns="http://www.w3.org/2000/svg">
<path d="M36.6666 22V40.3333H7.33325V22" stroke="#1364FF" stroke-width="3" stroke-linecap="round" stroke-linejoin="round"/>
<path d="M40.3334 12.8333H3.66675V22H40.3334V12.8333Z" stroke="#1364FF" stroke-width="3" stroke-linecap="round" stroke-linejoin="round"/>
<path d="M22 40.3333V12.8333" stroke="#1364FF" stroke-width="3" stroke-linecap="round" stroke-linejoin="round"/>
<path d="M22.0001 12.8334H13.7501C12.5345 12.8334 11.3687 12.3505 10.5092 11.4909C9.64963 10.6314 9.16675 9.4656 9.16675 8.25002C9.16675 7.03444 9.64963 5.86866 10.5092 5.00911C11.3687 4.14957 12.5345 3.66669 13.7501 3.66669C20.1667 3.66669 22.0001 12.8334 22.0001 12.8334Z" stroke="#1364FF" stroke-width="3" stroke-linecap="round" stroke-linejoin="round"/>
<path d="M22 12.8334H30.25C31.4656 12.8334 32.6314 12.3505 33.4909 11.4909C34.3504 10.6314 34.8333 9.4656 34.8333 8.25002C34.8333 7.03444 34.3504 5.86866 33.4909 5.00911C32.6314 4.14957 31.4656 3.66669 30.25 3.66669C23.8333 3.66669 22 12.8334 22 12.8334Z" stroke="#1364FF" stroke-width="3" stroke-linecap="round" stroke-linejoin="round"/>
</svg>
