<svg width="44" height="44" viewBox="0 0 44 44" fill="none" xmlns="http://www.w3.org/2000/svg">
<path d="M31.1666 38.5V34.8333C31.1666 32.8884 30.394 31.0232 29.0187 29.6479C27.6434 28.2726 25.7782 27.5 23.8333 27.5H9.16659C7.22166 27.5 5.3564 28.2726 3.98114 29.6479C2.60587 31.0232 1.83325 32.8884 1.83325 34.8333V38.5" stroke="#1364FF" stroke-width="3" stroke-linecap="round" stroke-linejoin="round"/>
<path d="M16.5001 20.1667C20.5502 20.1667 23.8334 16.8834 23.8334 12.8333C23.8334 8.78325 20.5502 5.5 16.5001 5.5C12.45 5.5 9.16675 8.78325 9.16675 12.8333C9.16675 16.8834 12.45 20.1667 16.5001 20.1667Z" stroke="#1364FF" stroke-width="3" stroke-linecap="round" stroke-linejoin="round"/>
<path d="M42.1665 38.5V34.8333C42.1653 33.2085 41.6245 31.6301 40.629 30.3459C39.6335 29.0617 38.2397 28.1446 36.6665 27.7383" stroke="#1364FF" stroke-width="3" stroke-linecap="round" stroke-linejoin="round"/>
<path d="M29.3335 5.73834C30.9109 6.14223 32.3091 7.05963 33.3075 8.34591C34.3059 9.63219 34.8479 11.2142 34.8479 12.8425C34.8479 14.4708 34.3059 16.0528 33.3075 17.3391C32.3091 18.6254 30.9109 19.5428 29.3335 19.9467" stroke="#1364FF" stroke-width="3" stroke-linecap="round" stroke-linejoin="round"/>
</svg>
